<svg width="394" height="97" viewBox="0 0 394 97" version="1.1" xmlns="http://www.w3.org/2000/svg" xmlns:xlink="http://www.w3.org/1999/xlink">


<g id="Canvas" transform="translate(-23666 -4965)">
<g id="marketing-logo">
<g id="yellow-bird-logo">
<g id="Vector 2">
<use xlink:href="#path0_fill" transform="matrix(-0.965752 -0.259466 -0.258174 0.966098 23741.7 4983.83)" fill="#4877AA" fill-opacity="0.01"/>
</g>
<g id="Vector 2">
<use xlink:href="#path1_fill" transform="matrix(-0.965752 -0.259466 -0.258174 0.966098 23741.9 4984.85)" fill="url(#paint1_linear)"/>
</g>
<g id="Vector 2">
<use xlink:href="#path2_fill" transform="matrix(-0.965752 -0.259466 -0.258174 0.966098 23729.1 4984.01)" fill="url(#paint2_linear)"/>
</g>
<g id="Vector 2">
<use xlink:href="#path3_fill" transform="matrix(-0.965752 -0.259466 -0.258174 0.966098 23741.9 4984.85)" fill="url(#paint3_linear)"/>
</g>
<g id="Vector 2">
<use xlink:href="#path4_fill" transform="matrix(-0.965752 -0.259466 -0.258174 0.966098 23741.7 4983.83)" fill="url(#paint4_linear)"/>
</g>
<g id="Vector 2">
<use xlink:href="#path5_fill" transform="matrix(-0.965752 -0.259466 -0.258174 0.966098 23719.3 5005.86)" fill="url(#paint5_linear)"/>
</g>
<g id="Vector 2">
<use xlink:href="#path6_fill" transform="matrix(-0.965752 -0.259466 -0.258174 0.966098 23719.3 5005.86)" fill="url(#paint6_linear)"/>
</g>
<g id="Vector 2">
<use xlink:href="#path7_fill" transform="matrix(-0.965752 -0.259466 -0.258174 0.966098 23712.3 5032.42)" fill="url(#paint7_linear)"/>
</g>
<g id="Ellipse">
<use xlink:href="#path8_fill" transform="matrix(-0.965752 -0.259466 -0.258174 0.966098 23728.7 4990.03)" fill="#FEF1BF"/>
</g>
</g>
<g id="Tunelark">
<use xlink:href="#path9_fill" transform="translate(23763 4965)" fill="#FFC700"/>
</g>
</g>
</g>
<defs>
<linearGradient id="paint1_linear" x1="0" y1="0" x2="1" y2="0" gradientUnits="userSpaceOnUse" gradientTransform="matrix(0.477241 51.7504 -72.4762 0.692896 52.2257 -1.13589)">
<stop offset="0" stop-color="#F64022"/>
<stop offset="0.259668" stop-color="#FB6527"/>
<stop offset="0.58011" stop-color="#FFC700"/>
</linearGradient>
<linearGradient id="paint2_linear" x1="0" y1="0" x2="1" y2="0" gradientUnits="userSpaceOnUse" gradientTransform="matrix(11.6925 21.8664 -30.6238 16.976 18.6526 -11.8159)">
<stop offset="0" stop-color="#F64022"/>
<stop offset="0.259668" stop-color="#FB6527"/>
<stop offset="0.58011" stop-color="#FFC700"/>
</linearGradient>
<linearGradient id="paint3_linear" x1="0" y1="0" x2="1" y2="0" gradientUnits="userSpaceOnUse" gradientTransform="matrix(4.05657 13.3628 -18.7145 5.88964 25.5835 -3.7342)">
<stop offset="0" stop-color="#F64022"/>
<stop offset="0.207663" stop-color="#FB6527"/>
<stop offset="0.58011" stop-color="#FFC700"/>
<stop offset="1" stop-color="#FFC700"/>
</linearGradient>
<linearGradient id="paint4_linear" x1="0" y1="0" x2="1" y2="0" gradientUnits="userSpaceOnUse" gradientTransform="matrix(18.1353 10.2043 -16.8653 9.71843 65.2246 2.5657)">
<stop offset="0.185388" stop-color="#FFC700"/>
<stop offset="0.825114" stop-color="#FA4D21"/>
</linearGradient>
<linearGradient id="paint5_linear" x1="0" y1="0" x2="1" y2="0" gradientUnits="userSpaceOnUse" gradientTransform="matrix(4.77243 32.7995 -24.8064 3.74183 35.5495 3.96012)">
<stop offset="0" stop-color="#EB6F57"/>
<stop offset="0.165464" stop-color="#F2994A"/>
<stop offset="0.492649" stop-color="#FFC700"/>
</linearGradient>
<linearGradient id="paint6_linear" x1="0" y1="0" x2="1" y2="0" gradientUnits="userSpaceOnUse" gradientTransform="matrix(8.11314 11.905 -9.0038 6.36111 38.3862 -0.507999)">
<stop offset="0.185388" stop-color="#FFC700"/>
<stop offset="0.825114" stop-color="#EB5757"/>
</linearGradient>
<linearGradient id="paint7_linear" x1="0" y1="0" x2="1" y2="0" gradientUnits="userSpaceOnUse" gradientTransform="matrix(1.19311 30.3699 -27.3235 1.11281 26.6638 -1.04232)">
<stop offset="0" stop-color="#EB5757"/>
<stop offset="0.98895" stop-color="#FFC700"/>
</linearGradient>
<path id="path0_fill" d="M 7.6359 6.4531C 7.445 12.6729 2.86346 17.1433 0 18.6011C 12.5992 18.6011 15.9081 27.5096 15.9877 31.9638L 15.9877 84.929C 18.8511 82.5966 23.8622 80.7177 26.0098 80.0698C 25.2462 78.9036 25.0553 75.2106 25.0553 73.5099C 25.8189 74.093 27.2824 77.4783 27.9187 79.098C 31.164 78.3205 35.7933 75.6966 37.7022 74.4818C 35.7933 72.7324 33.8843 68.2458 33.1684 66.2211C 35.4592 67.7761 38.7363 71.7282 40.0885 73.5099C 44.0973 72.3437 48.4402 69.2986 50.1106 67.9218C 42.4747 66.2211 36.7477 59.1753 35.0774 54.5591C 45.3381 54.0732 60.8485 42.1681 59.6554 27.1046C 70.1548 24.675 77.0748 11.0693 76.359 1.10797C 72.7319 2.66291 58.7009 6.939 51.0651 9.12563C 46.4835 11.2637 37.225 14.2278 31.4981 15.4426C 31.4981 14.2764 33.407 12.5271 34.3615 11.7982C 33.9797 10.4376 31.8162 7.66789 30.7822 6.4531C 25.628 -2.48781 10.9766 -1.80754 7.6359 6.4531Z"/>
<path id="path1_fill" d="M 0 17.6755C 6.20416 13.3023 4.93142 9.41492 8.11314 5.52749C 14.0787 -1.76123 26.9643 -1.92331 31.2594 5.52749C 32.0777 6.94694 32.6599 7.90566 32.9102 10.198C 32.9239 10.3231 32.924 10.4505 32.9099 10.5755C 32.6538 12.845 31.9753 13.3816 31.9753 14.517C 37.7022 13.3022 46.9608 10.338 51.5423 8.20002C 59.1782 6.01338 73.2091 1.7373 76.8362 0.18236C 77.1993 5.23452 75.5982 11.2241 72.5621 16.2177C 69.612 21.0699 65.307 24.9817 60.1327 26.179L 58.2237 27.1509C 54.6444 28.6474 44.4791 32.3461 32.4526 35.1685C 20.426 37.991 16.7831 48.6545 16.4649 53.6335L 16.4649 31.0382C 16.3854 26.584 12.5992 17.6755 0 17.6755Z"/>
<path id="path2_fill" d="M 18.6125 2.98904C 8.75112 5.67856 3.5547 6.93893 0 4.9328C 1.68316 2.44581 11.9545 -0.262623 15.9877 0.0204423C 17.0369 0.820398 17.9324 1.80929 18.6125 2.98904Z"/>
<path id="path3_fill" d="M 8.11314 5.52749C 6.05247 8.04522 5.86028 10.5629 4.29519 13.2126C 7.33734 11.7241 8.70056 10.1737 12.1697 7.95716C 17.1808 4.31277 21.5714 3.29383 28.6346 2.55889C 23.0572 -1.69331 13.1341 -0.607142 8.11314 5.52749Z"/>
<path id="path4_fill" fill-rule="evenodd" d="M 72.0849 17.1433C 75.1209 12.1497 76.722 6.16014 76.359 1.10797C 72.5924 12.4558 57.1181 18.3317 36.3486 26.2184C 33.55 27.281 30.6553 28.3802 27.6801 29.5342C 34.3615 27.5906 60.0672 20.4637 72.0849 17.1433Z"/>
<path id="path5_fill" fill-rule="evenodd" d="M 34.1229 40.8172C 26.487 39.1165 20.7601 32.0707 19.0897 27.4544C 26.2623 27.1148 36 21.1953 40.8043 12.5176C 39.4521 13.4472 33.073 15.9867 18.3739 18.7079C 19.1941 18.3546 20.2519 17.9376 21.4643 17.4597C 29.4226 14.3227 44.0366 8.5621 41.7588 0.971838C 38.1795 2.46836 28.0142 6.16703 15.9877 8.9895C 3.96112 11.812 0.318162 22.4755 0 27.4544L 0 50.093L 0 57.8244C 2.86346 55.492 7.87452 53.6131 10.0221 52.9652C 9.25852 51.799 9.06763 48.106 9.06763 46.4053C 9.83121 46.9884 11.2948 50.3736 11.9311 51.9933C 15.1763 51.2159 19.8056 48.5919 21.7146 47.3771C 19.8056 45.6278 17.8966 41.1411 17.1808 39.1165C 19.4715 40.6714 22.7486 44.6236 24.1008 46.4053C 28.1096 45.2391 32.4526 42.194 34.1229 40.8172Z"/>
<path id="path6_fill" d="M 40.8043 12.5176C 42.8729 8.78131 44.0269 4.53371 43.6678 0L 41.7588 0.971838C 44.0366 8.5621 29.4226 14.3227 21.4643 17.4597C 20.2519 17.9376 19.1941 18.3546 18.3739 18.7079C 33.073 15.9867 39.4521 13.4472 40.8043 12.5176Z"/>
<path id="path7_fill" fill-rule="evenodd" d="M 0.116144 22.6386C -0.0367212 24.9881 -0.0406954 27.5594 0.116144 30.3699C 2.9796 28.0375 7.99066 26.1586 10.1383 25.5108C 9.37467 24.3445 9.18377 20.6516 9.18377 18.9508C 9.94736 19.5339 11.4109 22.9192 12.0472 24.5389C 15.2925 23.7614 19.9217 21.1375 21.8307 19.9227C 19.9217 18.1734 18.0128 13.6867 17.2969 11.6621C 19.5877 13.217 22.8648 17.1691 24.2169 18.9508C 28.2258 17.7846 32.5687 14.7395 34.2391 13.3628C 26.6032 11.6621 20.8762 4.61623 19.2059 0C 8.63594 1.26613 1.12615 7.1143 0.116144 22.6386Z"/>
<path id="path8_fill" d="M 3.3407 1.70072C 3.3407 2.64 2.59286 3.40143 1.67035 3.40143C 0.747842 3.40143 0 2.64 0 1.70072C 0 0.761437 0.747842 0 1.67035 0C 2.59286 0 3.3407 0.761437 3.3407 1.70072Z"/>
<path id="path9_fill" d="M 44.4463 31.5041L 27.8976 31.5041L 27.8976 78L 17.6874 78L 17.6874 31.5041L 1.13868 31.5041L 1.13868 23.1158L 44.4463 23.1158L 44.4463 31.5041ZM 77.4175 39.0573L 77.4175 78L 71.6862 78C 70.4463 78 69.6619 77.4307 69.3329 76.292L 68.6877 73.1796C 67.0935 74.7991 65.3349 76.1149 63.4118 77.127C 61.4887 78.1139 59.224 78.6073 56.6177 78.6073C 54.4922 78.6073 52.607 78.253 50.9623 77.5445C 49.3428 76.8107 47.9764 75.7859 46.863 74.4701C 45.7497 73.1543 44.902 71.5981 44.32 69.8015C 43.7633 67.9797 43.485 65.9806 43.485 63.8045L 43.485 39.0573L 52.8601 39.0573L 52.8601 63.8045C 52.8601 66.1831 53.4041 68.0303 54.4922 69.3461C 55.6055 70.6366 57.2629 71.2818 59.4644 71.2818C 61.0838 71.2818 62.6021 70.9276 64.0191 70.219C 65.4361 69.4852 66.7772 68.4857 68.0424 67.2205L 68.0424 39.0573L 77.4175 39.0573ZM 96.2401 43.8397C 97.0245 43.0553 97.8469 42.3341 98.7072 41.6762C 99.5928 40.993 100.516 40.4237 101.478 39.9682C 102.465 39.4875 103.515 39.1205 104.628 38.8675C 105.742 38.5892 106.956 38.45 108.272 38.45C 110.398 38.45 112.283 38.8169 113.927 39.5507C 115.572 40.2592 116.939 41.2714 118.027 42.5872C 119.14 43.8777 119.975 45.4339 120.532 47.2558C 121.114 49.0523 121.405 51.0387 121.405 53.2148L 121.405 78L 112.03 78L 112.03 53.2148C 112.03 50.8363 111.486 49.0017 110.398 47.7112C 109.31 46.3954 107.652 45.7375 105.425 45.7375C 103.806 45.7375 102.288 46.1044 100.871 46.8382C 99.4537 47.572 98.1126 48.5716 96.8474 49.8367L 96.8474 78L 87.4723 78L 87.4723 39.0573L 93.2036 39.0573C 94.4182 39.0573 95.2153 39.6266 95.5948 40.7653L 96.2401 43.8397ZM 156.169 54.0498C 156.169 52.8353 155.992 51.6966 155.637 50.6338C 155.308 49.5458 154.802 48.5969 154.119 47.7871C 153.436 46.9774 152.563 46.3448 151.5 45.8893C 150.463 45.4086 149.248 45.1682 147.856 45.1682C 145.149 45.1682 143.011 45.9399 141.442 47.4835C 139.898 49.027 138.912 51.2158 138.481 54.0498L 156.169 54.0498ZM 138.292 59.7053C 138.443 61.7043 138.798 63.4376 139.354 64.9052C 139.911 66.3475 140.645 67.5495 141.556 68.511C 142.467 69.4473 143.542 70.1558 144.782 70.6366C 146.047 71.092 147.439 71.3198 148.957 71.3198C 150.475 71.3198 151.779 71.1426 152.867 70.7884C 153.98 70.4341 154.942 70.0419 155.751 69.6118C 156.586 69.1816 157.307 68.7894 157.915 68.4351C 158.547 68.0809 159.155 67.9037 159.737 67.9037C 160.521 67.9037 161.103 68.1947 161.483 68.7767L 164.178 72.1928C 163.14 73.4073 161.976 74.4321 160.686 75.2672C 159.395 76.0769 158.041 76.7348 156.624 77.2409C 155.233 77.7217 153.803 78.0633 152.335 78.2657C 150.893 78.4681 149.489 78.5693 148.122 78.5693C 145.415 78.5693 142.897 78.1265 140.569 77.2409C 138.241 76.3299 136.217 75.0015 134.496 73.2555C 132.775 71.4842 131.422 69.3081 130.435 66.7271C 129.448 64.1208 128.954 61.1096 128.954 57.6936C 128.954 55.0367 129.385 52.5443 130.245 50.2163C 131.105 47.863 132.333 45.8261 133.927 44.1054C 135.546 42.3594 137.507 40.9804 139.81 39.9682C 142.138 38.9561 144.757 38.45 147.667 38.45C 150.121 38.45 152.386 38.8422 154.461 39.6266C 156.536 40.411 158.32 41.5624 159.813 43.0806C 161.306 44.5735 162.469 46.4207 163.305 48.6222C 164.165 50.7983 164.595 53.2907 164.595 56.0995C 164.595 57.5165 164.443 58.478 164.14 58.9841C 163.836 59.4649 163.254 59.7053 162.394 59.7053L 138.292 59.7053ZM 181.879 21.5976L 181.879 78L 172.503 78L 172.503 21.5976L 181.879 21.5976ZM 212.55 61.3753C 209.843 61.5019 207.566 61.7422 205.718 62.0965C 203.871 62.4254 202.391 62.8556 201.278 63.387C 200.164 63.9184 199.367 64.5383 198.886 65.2468C 198.406 65.9553 198.165 66.7271 198.165 67.5621C 198.165 69.2069 198.646 70.3835 199.608 71.092C 200.594 71.8005 201.872 72.1548 203.441 72.1548C 205.364 72.1548 207.022 71.8132 208.413 71.13C 209.83 70.4215 211.209 69.3587 212.55 67.9417L 212.55 61.3753ZM 191.067 44.485C 195.546 40.3857 200.936 38.3361 207.237 38.3361C 209.514 38.3361 211.551 38.7157 213.348 39.4748C 215.144 40.2086 216.662 41.2461 217.902 42.5872C 219.142 43.903 220.078 45.4845 220.711 47.3317C 221.369 49.1788 221.698 51.2032 221.698 53.4046L 221.698 78L 217.447 78C 216.561 78 215.878 77.8735 215.397 77.6204C 214.916 77.3421 214.537 76.7981 214.258 75.9883L 213.423 73.1796C 212.437 74.0652 211.475 74.8497 210.539 75.5329C 209.603 76.1908 208.628 76.7475 207.616 77.2029C 206.604 77.6584 205.516 78 204.352 78.2277C 203.213 78.4808 201.948 78.6073 200.556 78.6073C 198.912 78.6073 197.393 78.3922 196.002 77.962C 194.61 77.5066 193.408 76.836 192.396 75.9504C 191.384 75.0647 190.599 73.964 190.043 72.6482C 189.486 71.3324 189.208 69.8015 189.208 68.0556C 189.208 67.0687 189.372 66.0945 189.701 65.133C 190.03 64.1461 190.561 63.2099 191.295 62.3242C 192.054 61.4386 193.029 60.6036 194.218 59.8191C 195.407 59.0347 196.862 58.3515 198.583 57.7695C 200.329 57.1875 202.353 56.7194 204.656 56.3652C 206.958 55.9856 209.59 55.7579 212.55 55.682L 212.55 53.4046C 212.55 50.7983 211.994 48.8752 210.88 47.6353C 209.767 46.3701 208.16 45.7375 206.06 45.7375C 204.542 45.7375 203.277 45.9146 202.264 46.2689C 201.278 46.6232 200.405 47.028 199.645 47.4835C 198.886 47.9137 198.191 48.3059 197.558 48.6601C 196.951 49.0144 196.267 49.1915 195.508 49.1915C 194.85 49.1915 194.294 49.027 193.838 48.6981C 193.383 48.3438 193.016 47.939 192.738 47.4835L 191.067 44.485ZM 240.13 45.8134C 241.345 43.4855 242.787 41.6636 244.457 40.3478C 246.127 39.0067 248.101 38.3361 250.378 38.3361C 252.175 38.3361 253.617 38.7283 254.705 39.5128L 254.098 46.5346C 253.971 46.9901 253.782 47.319 253.529 47.5214C 253.301 47.6986 252.985 47.7871 252.58 47.7871C 252.2 47.7871 251.631 47.7239 250.872 47.5974C 250.138 47.4708 249.417 47.4076 248.708 47.4076C 247.671 47.4076 246.747 47.5594 245.937 47.863C 245.128 48.1667 244.394 48.6095 243.736 49.1915C 243.103 49.7482 242.534 50.4314 242.028 51.2411C 241.547 52.0508 241.092 52.9744 240.662 54.0119L 240.662 78L 231.286 78L 231.286 39.0573L 236.79 39.0573C 237.752 39.0573 238.422 39.2344 238.802 39.5887C 239.181 39.9176 239.434 40.5249 239.561 41.4105L 240.13 45.8134ZM 269.739 21.5976L 269.739 53.898L 271.485 53.898C 272.118 53.898 272.611 53.8221 272.966 53.6703C 273.345 53.4932 273.725 53.1516 274.104 52.6455L 283.783 40.6894C 284.188 40.158 284.631 39.7531 285.111 39.4748C 285.617 39.1965 286.263 39.0573 287.047 39.0573L 295.625 39.0573L 283.517 53.5185C 282.657 54.6571 281.721 55.5301 280.709 56.1374C 281.24 56.517 281.708 56.9598 282.113 57.4659C 282.543 57.972 282.948 58.516 283.327 59.098L 296.308 78L 287.844 78C 287.11 78 286.478 77.8861 285.946 77.6584C 285.415 77.4054 284.972 76.9625 284.618 76.3299L 274.674 61.5651C 274.319 60.9831 273.952 60.6036 273.573 60.4264C 273.193 60.2493 272.624 60.1607 271.865 60.1607L 269.739 60.1607L 269.739 78L 260.364 78L 260.364 21.5976L 269.739 21.5976Z"/>
</defs>
</svg>
